<svg width="270" height="120" viewBox="0 0 270 120" fill="none" xmlns="http://www.w3.org/2000/svg">
<rect width="270" height="120" rx="4" fill="#F5F4FA"/>
<path d="M169.943 34.8962C169.806 34.475 169.442 34.1671 169.002 34.1028L164.823 33.4949L162.953 29.7079C162.561 28.9099 161.253 28.9099 160.861 29.7079L158.99 33.4949L154.811 34.1029C154.372 34.1671 154.008 34.474 153.869 34.8963C153.732 35.3187 153.845 35.783 154.164 36.0922L157.189 39.0405L156.475 43.2032C156.4 43.6407 156.58 44.0829 156.938 44.3443C157.301 44.608 157.775 44.6406 158.168 44.4329L161.906 42.467L165.644 44.4329C165.815 44.5227 166.002 44.567 166.188 44.567C166.429 44.567 166.671 44.4924 166.874 44.3441C167.233 44.0829 167.413 43.6406 167.337 43.2031L166.623 39.0403L169.648 36.0921C169.965 35.7817 170.08 35.3185 169.943 34.8962ZM164.556 37.7989C164.281 38.0661 164.155 38.4534 164.221 38.8314L164.638 41.2686L162.45 40.1182C162.279 40.0284 162.093 39.9841 161.906 39.9841C161.719 39.9841 161.534 40.0284 161.362 40.1182L159.174 41.2686L159.591 38.8314C159.657 38.4534 159.531 38.0673 159.256 37.7989L157.484 36.0723L159.932 35.7164C160.312 35.6616 160.64 35.4224 160.811 35.0782L161.905 32.8615L162.999 35.0782C163.17 35.4223 163.497 35.6616 163.878 35.7164L166.325 36.0723L164.556 37.7989Z" fill="#2196F3"/>
<path d="M157.167 69.8921H154.833V72.2255H157.167V69.8921Z" fill="#2196F3"/>
<path d="M157.167 74.5591H154.833V76.8925H157.167V74.5591Z" fill="#2196F3"/>
<path d="M159.5 72.2256H157.167V74.559H159.5V72.2256Z" fill="#2196F3"/>
<path d="M154.834 72.2256H152.5V74.559H154.834V72.2256Z" fill="#2196F3"/>
<path d="M149 82.7261H146.667V85.0595H149V82.7261Z" fill="#2196F3"/>
<path d="M149 87.3926H146.667V89.726H149V87.3926Z" fill="#2196F3"/>
<path d="M151.334 85.0591H149V87.3925H151.334V85.0591Z" fill="#2196F3"/>
<path d="M146.667 85.0591H144.333V87.3925H146.667V85.0591Z" fill="#2196F3"/>
<path d="M135 78.0591H132.667V80.3925H135V78.0591Z" fill="#2196F3"/>
<path d="M135 82.7261H132.667V85.0595H135V82.7261Z" fill="#2196F3"/>
<path d="M137.333 80.3926H135V82.726H137.333V80.3926Z" fill="#2196F3"/>
<path d="M132.667 80.3926H130.333V82.726H132.667V80.3926Z" fill="#2196F3"/>
<path d="M112.833 38.3916H110.5V40.725H112.833V38.3916Z" fill="#2196F3"/>
<path d="M112.833 43.0586H110.5V45.392H112.833V43.0586Z" fill="#2196F3"/>
<path d="M115.166 40.7251H112.833V43.0585H115.166V40.7251Z" fill="#2196F3"/>
<path d="M110.5 40.7251H108.166V43.0585H110.5V40.7251Z" fill="#2196F3"/>
<path d="M154.064 55.974C153.435 55.1258 152.512 54.5798 151.464 54.4327C150.412 54.2834 149.373 54.5599 148.533 55.2028L145.795 57.3015L145.794 57.3028L141.643 60.4027L138.672 59.2196C143.969 56.8431 147.671 51.5452 147.671 45.3944C147.671 37.0316 140.84 30.2275 132.444 30.2275C124.047 30.2275 117.216 37.0316 117.216 45.3944C117.216 48.4255 118.123 51.2441 119.666 53.616L113.62 53.5635C113.617 53.5635 113.613 53.5635 113.61 53.5635C113.591 53.5635 113.576 53.5728 113.559 53.574C113.443 53.5786 113.33 53.602 113.219 53.6417C113.191 53.6522 113.162 53.6581 113.135 53.6708C113.121 53.6767 113.107 53.6778 113.093 53.6847L106.021 57.1766C106.02 57.1766 106.018 57.1766 106.018 57.1777L101.877 59.1694C101.831 59.1893 101.784 59.2161 101.739 59.2464C100.088 60.3454 99.5257 62.5038 100.43 64.2677C100.912 65.2058 101.732 65.8965 102.74 66.2126C103.129 66.3339 103.525 66.3935 103.919 66.3935C104.553 66.3935 105.181 66.2383 105.756 65.9315L108.792 64.3168L113.744 61.7595L116.712 61.742L104.808 73.5886C104.807 73.5898 104.806 73.5898 104.805 73.5909L101.876 76.5076C101.185 77.1959 100.804 78.1094 100.804 79.0836C100.804 80.0567 101.185 80.9724 101.876 81.6621C102.587 82.369 103.521 82.7237 104.456 82.7237C105.392 82.7237 106.325 82.369 107.038 81.6621L109.913 78.799L113.721 75.9557L115.691 77.9181L111.838 81.7553C111.836 81.7565 111.835 81.7565 111.834 81.7576L108.906 84.6743C108.214 85.3627 107.833 86.2761 107.833 87.2504C107.833 88.2234 108.214 89.1392 108.906 89.8288C109.616 90.5358 110.552 90.8904 111.486 90.8904C112.421 90.8904 113.357 90.5358 114.068 89.8288L116.998 86.9121L121.684 82.2455C121.685 82.2442 121.685 82.2431 121.687 82.2419L123.895 80.0544L123.887 80.0462C123.901 80.0322 123.921 80.0274 123.935 80.0124L135.235 67.635L142.828 68.7154C142.883 68.7236 142.938 68.727 142.993 68.727C143.134 68.727 143.27 68.6933 143.402 68.6431C143.441 68.6292 143.474 68.6104 143.511 68.5918C143.553 68.5708 143.597 68.5591 143.637 68.5323L150.666 63.8657C150.692 63.8482 150.706 63.8201 150.73 63.8015C150.758 63.7794 150.793 63.7701 150.819 63.7455L153.6 61.1403C155.047 59.7843 155.247 57.563 154.064 55.974ZM104.66 63.8724C104.281 64.0754 103.851 64.1161 103.439 63.9856C103.03 63.8584 102.699 63.5795 102.505 63.2027C102.153 62.5166 102.357 61.6813 102.974 61.2298L105.848 59.8473L106.54 61.8691L106.83 62.7184L104.66 63.8724ZM112.31 59.8742L108.923 61.6243L108.365 59.9909L107.963 58.8171L112.397 56.6283L112.31 59.8742ZM145.34 45.3921C145.34 47.401 144.861 49.2959 144.03 50.9909L134.883 46.8364C134.788 45.5822 134.137 44.4844 133.159 43.8006L136.361 33.1687C141.563 34.8231 145.34 39.6754 145.34 45.3921ZM119.552 45.3921C119.552 38.3161 125.336 32.5585 132.446 32.5585C132.999 32.5585 133.54 32.6051 134.076 32.6728L130.943 43.0715C130.901 43.0703 130.862 43.0587 130.819 43.0587C128.56 43.0587 126.722 44.8903 126.722 47.1421C126.722 49.3938 128.56 51.2255 130.819 51.2255C132.337 51.2255 133.65 50.3868 134.358 49.1593L142.807 52.9977C140.456 56.1617 136.694 58.2256 132.446 58.2256C125.336 58.2256 119.552 52.4681 119.552 45.3921ZM132.581 47.1421C132.581 48.1069 131.79 48.8921 130.819 48.8921C129.847 48.8921 129.056 48.1069 129.056 47.1421C129.056 46.1773 129.847 45.3921 130.819 45.3921C131.79 45.3921 132.581 46.1773 132.581 47.1421ZM105.392 80.0076C104.875 80.5198 104.038 80.5187 103.523 80.0088C103.274 79.7603 103.138 79.4326 103.138 79.0836C103.138 78.736 103.274 78.4081 103.523 78.162L105.627 76.0654L107.489 77.9193L105.392 80.0076ZM112.422 88.1745C111.905 88.6866 111.068 88.6879 110.552 88.1757C110.303 87.9272 110.167 87.5994 110.167 87.2505C110.167 86.9028 110.303 86.575 110.552 86.3289L112.658 84.2312L113.539 85.1074L114.521 86.0851L112.422 88.1745ZM120.038 80.5863C120.037 80.5874 120.036 80.5874 120.035 80.5887L116.174 84.4387L115.293 83.5625L114.311 82.5848L118.168 78.7453C118.168 78.7453 118.168 78.7453 118.168 78.7442C118.169 78.7429 118.17 78.7429 118.172 78.7418C118.259 78.6543 118.314 78.5493 118.368 78.4456C118.383 78.4152 118.412 78.3895 118.425 78.3581C118.461 78.2682 118.467 78.1714 118.481 78.0768C118.488 78.0231 118.511 77.9731 118.511 77.9181C118.511 77.8399 118.483 77.7642 118.467 77.687C118.453 77.617 118.453 77.5458 118.426 77.4783C118.382 77.3686 118.306 77.2718 118.227 77.1772C118.204 77.1515 118.196 77.1188 118.172 77.0944C118.172 77.0944 118.172 77.0944 118.17 77.0944C118.169 77.0933 118.169 77.0908 118.168 77.0897L114.653 73.5897C114.616 73.5523 114.568 73.5372 114.526 73.5057C114.464 73.4579 114.404 73.4136 114.336 73.3797C114.269 73.347 114.201 73.3271 114.131 73.3084C114.057 73.2874 113.984 73.2711 113.906 73.2652C113.835 73.2606 113.769 73.2675 113.697 73.2757C113.619 73.285 113.546 73.2956 113.47 73.32C113.396 73.3434 113.331 73.3795 113.264 73.4181C113.22 73.4425 113.171 73.4507 113.131 73.4811L109.251 76.3768L107.281 74.4145L112.529 69.1948L122.067 78.5761L120.038 80.5863ZM134.954 65.2374C134.921 65.2327 134.889 65.2456 134.855 65.2433C134.77 65.2386 134.689 65.2445 134.603 65.2584C134.537 65.2701 134.474 65.2829 134.411 65.3051C134.336 65.3308 134.269 65.3658 134.2 65.4077C134.134 65.4474 134.075 65.4894 134.018 65.5419C133.99 65.5663 133.956 65.5781 133.93 65.606L123.653 76.8622L114.185 67.5508L120.382 61.3861C120.839 60.9311 120.841 60.1925 120.386 59.7352C120.156 59.5054 119.854 59.3922 119.552 59.3934V59.3923L114.698 59.4214L114.759 55.9051L121.549 55.9635C124.317 58.7939 128.176 60.5591 132.446 60.5591C133.403 60.5591 134.336 60.4599 135.245 60.2907C135.332 60.3607 135.419 60.4319 135.528 60.4762L140.8 62.5762L141.133 64.2352L141.523 66.1719L134.954 65.2374ZM143.794 65.627L143.11 62.2191L146.274 59.8566L147.102 60.9556L148.344 62.6052L143.794 65.627ZM152.005 59.4343L150.173 61.1516L148.136 58.4473L149.954 57.0531C150.294 56.7919 150.722 56.6856 151.142 56.7405C151.564 56.7999 151.938 57.0205 152.192 57.3623C152.666 58.0005 152.585 58.8907 152.005 59.4343Z" fill="#212121"/>
<path d="M129.755 65.5651L125.067 60.8984C124.613 60.4447 123.876 60.4447 123.421 60.8984L118.734 65.5651C118.515 65.7857 118.391 66.0819 118.391 66.3923C118.391 66.7026 118.513 67.0002 118.734 67.2195L123.421 71.8861C123.648 72.1124 123.947 72.2256 124.244 72.2256C124.542 72.2256 124.84 72.1124 125.067 71.8861L129.755 67.2195C129.974 67.0002 130.099 66.7026 130.099 66.3923C130.099 66.0819 129.975 65.7844 129.755 65.5651ZM124.244 69.4129L121.211 66.3923L124.244 63.3717L127.279 66.3923L124.244 69.4129Z" fill="#212121"/>
<path d="M137.547 36.0923L136.983 38.358C137.138 38.3966 140.784 39.3462 140.784 43.0586H143.118C143.118 38.6461 139.474 36.5718 137.547 36.0923Z" fill="#212121"/>
<path d="M143.118 45.3921H140.784V47.7255H143.118V45.3921Z" fill="#212121"/>
</svg>
